<svg xmlns="http://www.w3.org/2000/svg" viewBox="0 0 32 32" width="32" height="32">
  <!-- Open book base -->
  <path d="M2 8 L16 6 L16 28 L2 26 Z" fill="#3B82F6" stroke="#1E40AF" stroke-width="0.5"/>
  <path d="M30 8 L16 6 L16 28 L30 26 Z" fill="#60A5FA" stroke="#1E40AF" stroke-width="0.5"/>

  <!-- Book pages lines -->
  <line x1="5" y1="12" x2="13" y2="11" stroke="#1E40AF" stroke-width="0.5" opacity="0.5"/>
  <line x1="5" y1="16" x2="13" y2="15" stroke="#1E40AF" stroke-width="0.5" opacity="0.5"/>
  <line x1="5" y1="20" x2="13" y2="19" stroke="#1E40AF" stroke-width="0.5" opacity="0.5"/>
  <line x1="19" y1="11" x2="27" y2="12" stroke="#1E40AF" stroke-width="0.5" opacity="0.5"/>
  <line x1="19" y1="15" x2="27" y2="16" stroke="#1E40AF" stroke-width="0.5" opacity="0.5"/>
  <line x1="19" y1="19" x2="27" y2="20" stroke="#1E40AF" stroke-width="0.5" opacity="0.5"/>

  <!-- Book spine -->
  <path d="M16 6 L16 28" stroke="#1E40AF" stroke-width="1"/>

  <!-- Light bulb -->
  <ellipse cx="16" cy="4" rx="5" ry="4" fill="#FCD34D" stroke="#F59E0B" stroke-width="0.5"/>
  <rect x="14" y="7" width="4" height="2" rx="0.5" fill="#9CA3AF" stroke="#6B7280" stroke-width="0.3"/>

  <!-- Light rays -->
  <line x1="16" y1="-2" x2="16" y2="0" stroke="#F59E0B" stroke-width="1" stroke-linecap="round"/>
  <line x1="10" y1="2" x2="11" y2="3" stroke="#F59E0B" stroke-width="1" stroke-linecap="round"/>
  <line x1="22" y1="2" x2="21" y2="3" stroke="#F59E0B" stroke-width="1" stroke-linecap="round"/>
  <line x1="8" y1="5" x2="10" y2="5" stroke="#F59E0B" stroke-width="1" stroke-linecap="round"/>
  <line x1="24" y1="5" x2="22" y2="5" stroke="#F59E0B" stroke-width="1" stroke-linecap="round"/>
</svg>
